<?xml version="1.0" encoding="utf-8"?>
<!-- Uploaded to: SVG Repo, www.svgrepo.com, Generator: SVG Repo Mixer Tools -->
<svg width="800px" height="800px" viewBox="0 0 1024 1024" class="icon"  version="1.1" xmlns="http://www.w3.org/2000/svg"><path d="M984.661124 123.870968L891.412909 37.52976 686.785584 259.426049l93.247493 86.340485 204.628047-221.895566zM1014.017351 836.18069L660.136528 510.611374l91.405142-103.54298c5.81099-6.021234 5.81099-15.563164 0-21.585844L648.79632 285.328773c-6.021957-5.812435-15.563887-5.812435-21.585121 0L522.916829 384.369193 409.63179 280.147072c-6.021234-5.81099-15.563164-5.81099-21.585122 0L284.437942 383.756521c-5.81099 6.021234-5.81099 15.563164 0 21.584398l102.142071 108.497819-342.169255 324.932803a15.5386 15.5386 0 0 0-5.180255 12.087263v139.871239c-0.049129 7.953174 5.912138 14.658606 13.814015 15.542212l145.916315 17.267519a15.542212 15.542212 0 0 0 12.951362-5.180256l314.374329-356.122711 327.136398 347.488229a15.542935 15.542935 0 0 0 12.951362 5.181701l140.735337-15.542212c7.902599-0.883606 13.863145-7.589038 13.814015-15.540767v-138.14521a15.5386 15.5386 0 0 0-6.906285-9.497858zM128.564987 37.111438l215.511642 215.511642-87.914069 87.914069-215.511641-215.511642z" fill="#5C99E9" /><path d="M1018.834917 21.522265c-0.228307-11.444247-9.692208-20.536065-21.136455-20.306314l-111.37911 2.227438c-11.444969 0.228307-20.536788 9.691485-20.307036 21.135732l2.192758 109.653081c0.229029 11.444247 9.692208 20.536065 21.136455 20.307035l111.37911-2.22816c11.444247-0.228307 20.536065-9.691485 20.307036-21.135732l-2.192758-109.65308zM631.527356 173.084842a20.719578 20.719578 0 0 0-24.175249-6.043632l-52.667378 18.994994-6.90773 5.180978-0.050574 0.050574c-8.078164 8.105619-8.055045 21.226044 0.050574 29.30493l265.929185 259.021455 10.360511 4.318325 0.084531 0.031067c10.714532 4.021381 22.659464-1.403799 26.681568-12.118331l20.721746-54.395574a20.721023 20.721023 0 0 0-5.180256-22.447775L631.527356 173.084842zM478.704755 182.5827l-56.121604-22.447775a20.721745 20.721745 0 0 0-22.448497 4.31688L167.015201 397.571258a20.719578 20.719578 0 0 0-5.180256 22.447775l21.585121 56.98498a20.710908 20.710908 0 0 0 5.246725 7.870087c8.354156 7.823125 21.467355 7.391076 29.289758-0.962357L485.611763 216.255807a20.718133 20.718133 0 0 0 4.368899-6.625237c4.355894-10.582316-0.692868-22.692699-11.275907-27.04787zM135.932221 0.403872H23.689736C12.245489 0.403872 2.96799 9.68137 2.96799 21.125617v114.832614c0 11.444969 9.277498 20.721745 20.721746 20.721745h112.242485c11.444247 0 20.721745-9.276776 20.721746-20.721745V21.125617c0-11.444247-9.277498-20.721745-20.721746-20.721745z" fill="#EC5365" /></svg>