
    <svg
      xmlns="http://www.w3.org/2000/svg"
      xmlnsXlink="http://www.w3.org/1999/xlink"
      version="1"
      viewBox="0 0 151.59 151.56"
    >
      <defs>
        <linearGradient id="linearGradient3241">
          <stop offset="0" stopColor="#e5f400"></stop>
          <stop offset="1" stopColor="#b6c200"></stop>
        </linearGradient>
        <filter
          id="filter3266"
          width="1.53"
          height="1.068"
          x="-0.265"
          y="-0.034"
        >
          <feGaussianBlur stdDeviation="0.235"></feGaussianBlur>
        </filter>
        <radialGradient
          id="radialGradient3502"
          cx="170.05"
          cy="257.52"
          r="11.172"
          gradientTransform="matrix(.74683 0 0 .88372 43.051 35.943)"
          gradientUnits="userSpaceOnUse"
          xlinkHref="#linearGradient3241"
        ></radialGradient>
        <radialGradient
          id="radialGradient3528"
          cx="197.14"
          cy="289.5"
          r="75.797"
          gradientTransform="matrix(1 0 0 .99979 0 .06)"
          gradientUnits="userSpaceOnUse"
        >
          <stop offset="0" stopColor="#f9ee00"></stop>
          <stop offset="1" stopColor="#9e9700"></stop>
        </radialGradient>
      </defs>
      <g transform="translate(-121.34 -213.72)">
        <path
          fill="url(#radialGradient3528)"
          stroke="#000"
          strokeLinejoin="round"
          strokeWidth="3"
          d="M197.16 215.22c-19.47 0-37.19 7.51-50.44 19.78-7.33-1.75-16.29-1.86-20.44 6.06-1.77 3.39 3.3 8.46 6.56 11.25a73.953 73.953 0 00-10 37.19c0 41.01 33.31 74.28 74.32 74.28 41 0 74.28-33.27 74.28-74.28 0-13.43-3.6-26.03-9.85-36.91 3.24-2.72 8.71-8.03 6.88-11.53-4.22-8.06-13.41-7.8-20.81-5.97-13.26-12.31-31-19.87-50.5-19.87z"
        ></path>
        <path
          fill="#fff"
          fillOpacity="0.196"
          d="M197.16 215.22c-19.47 0-37.19 7.51-50.44 19.78-7.33-1.75-16.29-1.86-20.44 6.06-1.77 3.39 3.3 8.46 6.56 11.25a73.953 73.953 0 00-10 37.19c0 12.49 3.11 24.26 8.57 34.59 16.9-.51 35.99-5.98 54.21-16.5 36.69-21.18 57.38-55.73 50.41-81.34a73.661 73.661 0 00-38.87-11.03z"
        ></path>
        <path
          fill="#fff"
          fillRule="evenodd"
          stroke="#000"
          strokeWidth="2"
          d="M254.29 306.45c-4.42-22.57-8.62 1.55-57.15 1.55-47.81 0-51.24-24.49-56.9-.12-3.9 16.79 24.64 42.34 56.19 42.34 32.26 0 61.49-25.18 57.86-43.77z"
        ></path>
        <path
          fill="#000"
          fillOpacity="0.118"
          d="M229.5 227.88s4.21 4.33 4.5 6.74c.28 2.38-4.99 5.08-2.75 7.5 6.49-.82 12.43-2.25 13.5-3.74 1-1.39-2.18-3.42-3.5-4.5-3.05-2.53-11.75-6-11.75-6zm25.41 6.15c-1.84.05-3.69.33-5.47.69a78.777 78.777 0 018.65 35.94c0 10.33-1.98 20.19-5.59 29.25-.94-2.15-2.07-3.04-3.66-3.1-5.93-.21-18.32 11.19-51.68 11.19-34.68 0-46.02-12.87-51.78-10.66l-2.72 3.38c1.12-.46 2.37-.6 3.78-.5-5.21 13.61-2.32 23.9-2.32 23.9l6.13 6.26s-5.46-11.44-3.03-30.1c2.82.34 6.37 1.54 10.59 2.97-2.08 2.76-5.69 9.84-7.43 26.87 4.38-16.03 9.85-22.84 12.31-25.24.19.05.37.12.56.18-6.2 16.94-3.25 33.82-3.25 33.82l6.88 4.12s-.23-.85-.54-2.09c4.54-18.33 10.98-28.15 13.82-31.82.41.07.83.13 1.25.19-5.07 16.17-1.79 38.72-1.79 38.72l5.76 1.59c-2.14.18-4.3.25-6.47.25-12.25 0-23.87-2.78-34.22-7.75 13.44 13.41 32 21.69 52.47 21.69 41 0 74.28-33.27 74.28-74.28 0-13.43-3.6-26.03-9.85-36.91 3.24-2.72 8.71-8.03 6.88-11.53-2.9-5.54-8.16-7.16-13.56-7.03zm-51.66 17.59c-.53 2.91-1.01 5.48.25 8.5 4.76.03 7.68-3.09 9.5-5.74-3.18-1.16-5.97-.41-9.75-2.76zm-34.19 33.47c-5.4-.01-11.7.11-15.59.03-1.22-.02-2.97 1.8-2.78 3 .8 5.09 12.42 3.32 17.56 3.16 3.66-.11 10.25-1.77 10.25-1.77 2-1.7 1.56-2.15.72-3.7-.26-.57-4.76-.71-10.16-.72zm80.22 15c1.1-.01 2.06.16 2.91.53-1.23 3-2.62 5.92-4.19 8.72 0-3.84-.46-6.92-.88-9 .77-.12 1.49-.24 2.16-.25zm-6.31 1.22c.62 2.44 1.52 7.01 1.65 13.53a76.43 76.43 0 01-4.03 5.44c-2.24-5.96-5.35-12.8-8.65-15.44 4.29-1.33 7.96-2.63 11.03-3.53zm-11.81 3.78c3.36 5.47 5.63 12.31 7.06 18a79.611 79.611 0 01-8.1 7.91c1.82-11.6.69-22.16.22-25.66.28-.08.54-.16.82-.25zm-67.41.13c3.31 1.03 7.03 2.03 11.19 2.9-2.38 3.06-7.03 11.59-8.66 32.63-1.21-4.97-3.83-18.24-2.53-35.53zm61.91 1.4c.62 2.81 2.46 12.31 2.31 26.16-.73.58-1.47 1.14-2.22 1.69-2.14-8.59-6.03-21.24-11.16-25.47 4.03-.65 7.7-1.49 11.07-2.38zm-12.32 2.6c5.85 9.28 8.01 20.44 8.82 27.75-4.35 2.84-9 5.26-13.88 7.22 4.49-15.29 4.32-29.84 4.1-34.85.32-.04.65-.07.96-.12zm-31.28.16c2.94.4 6.07.7 9.41.87-1.48 4.67-4.59 16.67-5.09 36.13 4.41-18.79 8.17-31.59 9.5-35.97h1.65c1.93 13.82 3.44 30 3.97 36.15a78.619 78.619 0 01-14.72 2.91c-.29-1.4-4.01-19.86-4.72-40.09zm26.44.43c.48 4.38 1.44 16.83-.72 34.57-.16.06-.31.12-.47.18-.95-7.3-3.38-21.72-9.03-34.15 3.6-.04 7.01-.26 10.22-.6z"
        ></path>
        <path
          fill="none"
          stroke="#000"
          strokeWidth="1"
          d="M147.86 297.36s-5.29 13.24 2.76 32.86c4.85-22.17 13.49-26.61 13.49-26.61s-2.22 23.27 2.68 37.85c3.82-24.71 15.09-33.56 15.09-33.56s-.4 21.74 4.73 38.8c5.31-28.83 10.44-38.8 10.44-38.8"
        ></path>
        <path
          fill="none"
          stroke="#000"
          strokeWidth="1"
          d="M246.49 297.36s5.29 13.24-2.77 32.86c-4.84-22.17-13.48-26.61-13.48-26.61s2.21 23.27-2.68 37.85c-3.82-24.71-15.09-33.56-15.09-33.56s.4 21.74-4.73 38.8c-5.31-28.83-10.45-38.8-10.45-38.8"
        ></path>
        <path
          fill="#faa"
          fillRule="evenodd"
          d="M227.52 341.34s-13.96 6.27-19.93 5.3c-6.61 2.58-14.57 2.93-20.96 0-6.28 1.38-19.57-5.18-19.57-5.18-1.65.39 11.62 7.75 30.08 7.75 17.23 0 31.44-7.91 30.38-7.87z"
        ></path>
        <path
          fill="#000"
          fillRule="evenodd"
          d="M133.97 241.43s-.69.57-.06 1.51c.71 1.04 1.14.25 1.14.25 13.99-7.77 36.58 12.67 57.56 21.21l.31.12 1.17-3.31-1.45 2.09c-16.58-4.07-41.45-31.42-58.67-21.87z"
        ></path>
        <g transform="translate(-38.022 -41.544) scale(1.1897)">
          <path
            fill="#fff"
            fillRule="evenodd"
            d="M150.44 249.44l.88 12.55s2.18 4.57 3.26 6.85c1.07 2.26 3.75 5.7 6.34 6.78l18.2.18c1.72.2 12.95-7.97 9.5-11.02l-36.86-16.22-1.32.88z"
          ></path>
          <path
            fill="#000"
            fillRule="evenodd"
            d="M160.88 275.62c8.55 1.03 6.41.96 9.18.98 2.77.03 9.19-.82 9.19-.82l-18.37-.16z"
          ></path>
          <path
            fill="url(#radialGradient3502)"
            stroke="#000"
            strokeLinejoin="round"
            strokeWidth="0.841"
            d="M161.34 252.38c-1.23 2.3-1.96 5.11-1.96 8.15 0 7.81 4.78 14.13 10.68 14.13 5.65 0 10.27-5.79 10.66-13.13l-19.38-9.15z"
          ></path>
          <path
            fill="#fff"
            d="M169.12 256.06c-.08 1.38-.12 2.89-.12 4.47 0 6.68 1.06 12.19 1.06 12.19s1.07-5.38 1.06-12.19c0-1.27-.03-2.45-.09-3.59l-1.91-.88z"
            filter="url(#filter3266)"
          ></path>
          <path
            fill="#000"
            fillRule="evenodd"
            d="M149.09 245.66s-3.94 9.63 5.53 23.25c-5.2-11.13-1.81-18.53-1.81-18.53l35.92 14.45-39.64-19.17z"
          ></path>
          <path
            fill="#000"
            d="M169.12 256.06c-.08 1.38-.12 2.89-.12 4.47 0 6.68 1.06 12.19 1.06 12.19s1.07-5.38 1.06-12.19c0-1.27-.03-2.45-.09-3.59l-1.91-.88z"
          ></path>
          <path
            fill="#000"
            fillOpacity="0.081"
            fillRule="evenodd"
            d="M161.34 252.38c-.79 1.47-1.4 3.15-1.72 4.96l20.79 6.63c.15-.8.26-1.6.31-2.44l-19.38-9.15z"
          ></path>
        </g>
        <path
          fill="#000"
          fillRule="evenodd"
          d="M260.79 241.43s.69.57.05 1.51c-.7 1.04-1.13.25-1.13.25-13.99-7.77-36.58 12.67-57.56 21.21l-.31.12-1.17-3.31 1.45 2.09c16.58-4.07 41.45-31.42 58.67-21.87z"
        ></path>
        <path
          fill="#000"
          fillOpacity="0.118"
          d="M225.61 285.09c5.4-.01 11.7.11 15.6.03 1.22-.02 2.97 1.8 2.78 3-.81 5.09-12.42 3.32-17.57 3.16-3.65-.11-10.25-1.77-10.25-1.77-2-1.7-1.56-2.15-.71-3.7.26-.57 4.75-.71 10.15-.72z"
        ></path>
        <g transform="matrix(-1.1897 0 0 1.1897 432.56 -41.544)">
          <path
            fill="#fff"
            fillRule="evenodd"
            d="M150.44 249.44l.88 12.55s2.18 4.57 3.26 6.85c1.07 2.26 3.75 5.7 6.34 6.78l18.2.18c1.72.2 12.95-7.97 9.5-11.02l-36.86-16.22-1.32.88z"
          ></path>
          <path
            fill="#000"
            fillRule="evenodd"
            d="M160.88 275.62c8.55 1.03 6.41.96 9.18.98 2.77.03 9.19-.82 9.19-.82l-18.37-.16z"
          ></path>
          <path
            fill="url(#radialGradient3502)"
            stroke="#000"
            strokeLinejoin="round"
            strokeWidth="0.841"
            d="M161.34 252.38c-1.23 2.3-1.96 5.11-1.96 8.15 0 7.81 4.78 14.13 10.68 14.13 5.65 0 10.27-5.79 10.66-13.13l-19.38-9.15z"
          ></path>
          <path
            fill="#fff"
            d="M169.12 256.06c-.08 1.38-.12 2.89-.12 4.47 0 6.68 1.06 12.19 1.06 12.19s1.07-5.38 1.06-12.19c0-1.27-.03-2.45-.09-3.59l-1.91-.88z"
            filter="url(#filter3266)"
          ></path>
          <path
            fill="#000"
            fillRule="evenodd"
            d="M149.09 245.66s-3.94 9.63 5.53 23.25c-5.2-11.13-1.81-18.53-1.81-18.53l35.92 14.45-39.64-19.17z"
          ></path>
          <path
            fill="#000"
            d="M169.12 256.06c-.08 1.38-.12 2.89-.12 4.47 0 6.68 1.06 12.19 1.06 12.19s1.07-5.38 1.06-12.19c0-1.27-.03-2.45-.09-3.59l-1.91-.88z"
          ></path>
          <path
            fill="#000"
            fillOpacity="0.081"
            fillRule="evenodd"
            d="M161.34 252.38c-.79 1.47-1.4 3.15-1.72 4.96l20.79 6.63c.15-.8.26-1.6.31-2.44l-19.38-9.15z"
          ></path>
        </g>
        <path
          fill="#000"
          fillOpacity="0.235"
          fillRule="evenodd"
          d="M248.25 296.86c4.57 4.36 4.37 21 4.37 21l2.38-9.12s-2.82-11.61-6.75-11.88z"
        ></path>
        <path
          fill="none"
          stroke="#000"
          strokeLinejoin="round"
          strokeWidth="3"
          d="M197.16 215.22c-19.47 0-37.19 7.51-50.44 19.78-7.33-1.75-16.29-1.86-20.44 6.06-1.77 3.39 3.3 8.46 6.56 11.25a73.953 73.953 0 00-10 37.19c0 41.01 33.31 74.28 74.32 74.28 41 0 74.28-33.27 74.28-74.28 0-13.43-3.6-26.03-9.85-36.91 3.24-2.72 8.71-8.03 6.88-11.53-4.22-8.06-13.41-7.8-20.81-5.97-13.26-12.31-31-19.87-50.5-19.87z"
        ></path>
        <path
          fill="#fff"
          fillOpacity="0.314"
          d="M163.25 267.49a5.125 1.375 0 11-10.25 0 5.125 1.375 0 1110.25 0z"
          transform="translate(0 2)"
        ></path>
        <path
          fill="#fff"
          fillOpacity="0.314"
          d="M163.25 267.49a5.125 1.375 0 11-10.25 0 5.125 1.375 0 1110.25 0z"
          transform="translate(66 2)"
        ></path>
      </g>
    </svg>

